<?xml version="1.0" encoding="UTF-8"?><svg id="Layer_1" xmlns="http://www.w3.org/2000/svg" viewBox="0 0 35.0001 40"><defs><style>.cls-1{fill:#065ec4;}</style></defs><path id="bell-solid" class="cls-1" d="M17.5001,40c2.7614,0,5-2.2386,5-5H12.5001c0,2.7614,2.2386,5,5,5Zm16.8275-11.6963c-1.51-1.625-4.3338-4.0613-4.3338-12.0537,.0053-5.9166-4.1905-11.004-10-12.125v-1.625c0-1.3807-1.1193-2.5-2.5-2.5s-2.5,1.1193-2.5,2.5v1.625c-5.807,1.1236-9.9996,6.2103-9.9937,12.125,0,7.9925-2.8238,10.4325-4.3338,12.0537C.2336,28.762-.0051,29.3698,0,30c0,1.3807,1.1193,2.5,2.5,2.5h29.9913c1.3807,.0048,2.5039-1.1105,2.5087-2.4912v-.0088c.0033-.6313-.2382-1.2393-.6737-1.6963h.0012Z"/></svg>