<?xml version="1.0" encoding="UTF-8"?><svg id="Layer_1" xmlns="http://www.w3.org/2000/svg" viewBox="0 0 40 40"><defs><style>.cls-1{fill:#084fba;isolation:isolate;opacity:.61;}.cls-2{fill:#d1e3ff;}</style></defs><circle id="Ellipse_1" class="cls-2" cx="20" cy="20" r="20"/><path id="user-solid" class="cls-1" d="M20,18c4.1681,0,7.547-3.3789,7.547-7.547s-3.3789-7.547-7.547-7.547-7.547,3.3789-7.547,7.547v.001c0,4.1675,3.3785,7.546,7.546,7.546h.001Zm5.283,1.887h-.99c-2.7284,1.259-5.8716,1.259-8.6,0h-.976c-4.3743,.0011-7.9207,3.5457-7.924,7.92v2.453c.0006,1.5627,1.2673,2.8294,2.83,2.83H30.376c1.5627-.0006,2.8294-1.2673,2.83-2.83v-2.453c-.0033-4.3743-3.5497-7.9189-7.924-7.92h.001Z"/></svg>